<mxfile host="Electron" agent="Mozilla/5.0 (Windows NT 10.0; Win64; x64) AppleWebKit/537.36 (KHTML, like Gecko) draw.io/28.2.5 Chrome/138.0.7204.251 Electron/37.6.1 Safari/537.36" version="28.2.5">
  <diagram id="page-1" name="1st Level User side DFD (editable)">
    <mxGraphModel dx="1716" dy="1131" grid="1" gridSize="10" guides="1" tooltips="1" connect="1" arrows="1" fold="1" page="1" pageScale="1" pageWidth="1200" pageHeight="900" math="0" shadow="0">
      <root>
        <mxCell id="0" />
        <mxCell id="1" parent="0" />
        <mxCell id="ext_user" value="&lt;font style=&quot;font-size: 19px;&quot;&gt;User&lt;/font&gt;" style="shape=rectangle;whiteSpace=wrap;html=1;" parent="1" vertex="1">
          <mxGeometry x="40" y="70" width="140" height="30" as="geometry" />
        </mxCell>
        <mxCell id="p1" value="&lt;font style=&quot;font-size: 16px;&quot;&gt;1.0&lt;br&gt;Serach Item&lt;/font&gt;" style="shape=ellipse;whiteSpace=wrap;html=1;" parent="1" vertex="1">
          <mxGeometry x="360" y="120" width="160" height="70" as="geometry" />
        </mxCell>
        <mxCell id="p2" value="&lt;font style=&quot;font-size: 16px;&quot;&gt;2.0&lt;br&gt;Registration&lt;/font&gt;" style="shape=ellipse;whiteSpace=wrap;html=1;" parent="1" vertex="1">
          <mxGeometry x="360" y="230" width="160" height="70" as="geometry" />
        </mxCell>
        <mxCell id="p3" value="&lt;font style=&quot;font-size: 16px;&quot;&gt;3.0&lt;br&gt;Login&lt;/font&gt;" style="shape=ellipse;whiteSpace=wrap;html=1;" parent="1" vertex="1">
          <mxGeometry x="360" y="340" width="160" height="70" as="geometry" />
        </mxCell>
        <mxCell id="p4" value="&lt;font style=&quot;font-size: 16px;&quot;&gt;4.0&lt;br&gt;Account&lt;/font&gt;" style="shape=ellipse;whiteSpace=wrap;html=1;" parent="1" vertex="1">
          <mxGeometry x="360" y="450" width="160" height="70" as="geometry" />
        </mxCell>
        <mxCell id="p5" value="&lt;font style=&quot;font-size: 16px;&quot;&gt;5.0&lt;br&gt;Buy item&lt;/font&gt;" style="shape=ellipse;whiteSpace=wrap;html=1;" parent="1" vertex="1">
          <mxGeometry x="360" y="560" width="160" height="70" as="geometry" />
        </mxCell>
        <mxCell id="p6" value="&lt;font style=&quot;font-size: 16px;&quot;&gt;6.0&lt;br&gt;Make&lt;br&gt;Order&lt;/font&gt;" style="shape=ellipse;whiteSpace=wrap;html=1;" parent="1" vertex="1">
          <mxGeometry x="360" y="670" width="160" height="70" as="geometry" />
        </mxCell>
        <mxCell id="p7" value="&lt;font style=&quot;font-size: 16px;&quot;&gt;7.0&lt;br&gt;Make&lt;br&gt;Payment&lt;/font&gt;" style="shape=ellipse;whiteSpace=wrap;html=1;" parent="1" vertex="1">
          <mxGeometry x="360" y="780" width="160" height="70" as="geometry" />
        </mxCell>
        <mxCell id="p1_to_ItemMst1" value="" style="endArrow=classic;html=1;" parent="1" source="p1" edge="1">
          <mxGeometry as="geometry">
            <mxPoint x="980" y="155" as="targetPoint" />
          </mxGeometry>
        </mxCell>
        <mxCell id="ItemMst1_to_p1" value="" style="endArrow=classic;html=1;" parent="1" target="p1" edge="1">
          <mxGeometry as="geometry">
            <mxPoint x="980" y="155" as="sourcePoint" />
          </mxGeometry>
        </mxCell>
        <mxCell id="p2_to_UserMst2" value="" style="endArrow=classic;html=1;" parent="1" source="p2" edge="1">
          <mxGeometry as="geometry">
            <mxPoint x="980" y="265" as="targetPoint" />
          </mxGeometry>
        </mxCell>
        <mxCell id="UserMst2_to_p2" value="" style="endArrow=classic;html=1;" parent="1" target="p2" edge="1">
          <mxGeometry as="geometry">
            <mxPoint x="980" y="265" as="sourcePoint" />
          </mxGeometry>
        </mxCell>
        <mxCell id="p3_to_UserMst3" value="" style="endArrow=classic;html=1;" parent="1" source="p3" edge="1">
          <mxGeometry as="geometry">
            <mxPoint x="980" y="375" as="targetPoint" />
          </mxGeometry>
        </mxCell>
        <mxCell id="UserMst3_to_p3" value="" style="endArrow=classic;html=1;" parent="1" target="p3" edge="1">
          <mxGeometry as="geometry">
            <mxPoint x="980" y="375" as="sourcePoint" />
          </mxGeometry>
        </mxCell>
        <mxCell id="p4_to_UserMst4" value="" style="endArrow=classic;html=1;" parent="1" source="p4" edge="1">
          <mxGeometry as="geometry">
            <mxPoint x="980" y="485" as="targetPoint" />
          </mxGeometry>
        </mxCell>
        <mxCell id="UserMst4_to_p4" value="" style="endArrow=classic;html=1;" parent="1" target="p4" edge="1">
          <mxGeometry as="geometry">
            <mxPoint x="980" y="485" as="sourcePoint" />
          </mxGeometry>
        </mxCell>
        <mxCell id="p5_to_ItemMst5" value="" style="endArrow=classic;html=1;" parent="1" source="p5" edge="1">
          <mxGeometry as="geometry">
            <mxPoint x="980" y="595" as="targetPoint" />
          </mxGeometry>
        </mxCell>
        <mxCell id="ItemMst5_to_p5" value="" style="endArrow=classic;html=1;" parent="1" target="p5" edge="1">
          <mxGeometry as="geometry">
            <mxPoint x="980" y="595" as="sourcePoint" />
          </mxGeometry>
        </mxCell>
        <mxCell id="p6_to_OrderMst6" value="" style="endArrow=classic;html=1;" parent="1" source="p6" edge="1">
          <mxGeometry as="geometry">
            <mxPoint x="980" y="705" as="targetPoint" />
          </mxGeometry>
        </mxCell>
        <mxCell id="OrderMst6_to_p6" value="" style="endArrow=classic;html=1;" parent="1" target="p6" edge="1">
          <mxGeometry as="geometry">
            <mxPoint x="980" y="705" as="sourcePoint" />
          </mxGeometry>
        </mxCell>
        <mxCell id="p7_to_PaymentMst7" value="" style="endArrow=classic;html=1;" parent="1" source="p7" edge="1">
          <mxGeometry as="geometry">
            <mxPoint x="980" y="815" as="targetPoint" />
          </mxGeometry>
        </mxCell>
        <mxCell id="PaymentMst7_to_p7" value="" style="endArrow=classic;html=1;" parent="1" target="p7" edge="1">
          <mxGeometry as="geometry">
            <mxPoint x="980" y="815" as="sourcePoint" />
          </mxGeometry>
        </mxCell>
        <mxCell id="u_to_p1" value="" style="endArrow=classic;html=1;exitX=0.96;exitY=1.048;exitDx=0;exitDy=0;exitPerimeter=0;startArrow=classic;strokeWidth=3;" parent="1" source="ext_user" target="p1" edge="1">
          <mxGeometry as="geometry">
            <Array as="points">
              <mxPoint x="174" y="155" />
            </Array>
          </mxGeometry>
        </mxCell>
        <mxCell id="u_to_p2" value="" style="endArrow=classic;html=1;exitX=0.861;exitY=1.047;exitDx=0;exitDy=0;exitPerimeter=0;strokeWidth=3;startArrow=classic;" parent="1" source="ext_user" target="p2" edge="1">
          <mxGeometry as="geometry">
            <Array as="points">
              <mxPoint x="160" y="265" />
            </Array>
          </mxGeometry>
        </mxCell>
        <mxCell id="u_to_p3" value="" style="endArrow=classic;html=1;exitX=0.71;exitY=0.976;exitDx=0;exitDy=0;exitPerimeter=0;strokeWidth=3;startArrow=classic;" parent="1" source="ext_user" target="p3" edge="1">
          <mxGeometry as="geometry">
            <Array as="points">
              <mxPoint x="140" y="375" />
            </Array>
          </mxGeometry>
        </mxCell>
        <mxCell id="u_to_p4" value="" style="endArrow=classic;html=1;strokeWidth=3;exitX=0.55;exitY=0.95;exitDx=0;exitDy=0;exitPerimeter=0;startArrow=classic;" parent="1" source="ext_user" target="p4" edge="1">
          <mxGeometry as="geometry">
            <Array as="points">
              <mxPoint x="120" y="485" />
            </Array>
          </mxGeometry>
        </mxCell>
        <mxCell id="u_to_p5" value="" style="endArrow=classic;html=1;exitX=0.421;exitY=0.9;exitDx=0;exitDy=0;exitPerimeter=0;strokeWidth=3;startArrow=classic;" parent="1" source="ext_user" target="p5" edge="1">
          <mxGeometry as="geometry">
            <Array as="points">
              <mxPoint x="100" y="600" />
            </Array>
          </mxGeometry>
        </mxCell>
        <mxCell id="u_to_p6" value="" style="endArrow=classic;html=1;strokeWidth=3;exitX=0.25;exitY=1;exitDx=0;exitDy=0;endFill=1;startArrow=classic;startFill=0;" parent="1" source="ext_user" target="p6" edge="1">
          <mxGeometry as="geometry">
            <Array as="points">
              <mxPoint x="75" y="705" />
            </Array>
          </mxGeometry>
        </mxCell>
        <mxCell id="u_to_p7" value="" style="endArrow=classic;html=1;strokeWidth=3;exitX=0.085;exitY=0.956;exitDx=0;exitDy=0;exitPerimeter=0;startArrow=classic;" parent="1" source="ext_user" target="p7" edge="1">
          <mxGeometry as="geometry">
            <Array as="points">
              <mxPoint x="52" y="815" />
            </Array>
          </mxGeometry>
        </mxCell>
        <mxCell id="rQzVTMBjS3d8bpWh1Scw-3" value="&lt;font style=&quot;font-size: 20px;&quot;&gt;ItemMst&lt;/font&gt;" style="shape=partialRectangle;whiteSpace=wrap;html=1;top=0;bottom=0;fillColor=default;direction=south;strokeWidth=3;" parent="1" vertex="1">
          <mxGeometry x="990" y="130" width="160" height="50" as="geometry" />
        </mxCell>
        <mxCell id="rQzVTMBjS3d8bpWh1Scw-4" value="&lt;font style=&quot;font-size: 20px;&quot;&gt;UserMst&lt;/font&gt;" style="shape=partialRectangle;whiteSpace=wrap;html=1;top=0;bottom=0;fillColor=default;direction=south;strokeWidth=3;" parent="1" vertex="1">
          <mxGeometry x="990" y="240" width="160" height="50" as="geometry" />
        </mxCell>
        <mxCell id="rQzVTMBjS3d8bpWh1Scw-5" value="&lt;span style=&quot;font-size: 20px;&quot;&gt;UserMst&lt;/span&gt;" style="shape=partialRectangle;whiteSpace=wrap;html=1;top=0;bottom=0;fillColor=default;direction=south;strokeWidth=3;" parent="1" vertex="1">
          <mxGeometry x="990" y="350" width="160" height="50" as="geometry" />
        </mxCell>
        <mxCell id="rQzVTMBjS3d8bpWh1Scw-6" value="&lt;span style=&quot;font-size: 20px;&quot;&gt;UserMst&lt;/span&gt;" style="shape=partialRectangle;whiteSpace=wrap;html=1;top=0;bottom=0;fillColor=default;direction=south;strokeWidth=3;" parent="1" vertex="1">
          <mxGeometry x="990" y="460" width="160" height="50" as="geometry" />
        </mxCell>
        <mxCell id="rQzVTMBjS3d8bpWh1Scw-7" value="&lt;font style=&quot;font-size: 20px;&quot;&gt;ItemMst&lt;/font&gt;" style="shape=partialRectangle;whiteSpace=wrap;html=1;top=0;bottom=0;fillColor=default;direction=south;strokeWidth=3;" parent="1" vertex="1">
          <mxGeometry x="990" y="570" width="160" height="50" as="geometry" />
        </mxCell>
        <mxCell id="rQzVTMBjS3d8bpWh1Scw-8" value="&lt;font style=&quot;font-size: 20px;&quot;&gt;OrderMst&lt;/font&gt;" style="shape=partialRectangle;whiteSpace=wrap;html=1;top=0;bottom=0;fillColor=default;direction=south;strokeWidth=3;" parent="1" vertex="1">
          <mxGeometry x="990" y="680" width="160" height="50" as="geometry" />
        </mxCell>
        <mxCell id="rQzVTMBjS3d8bpWh1Scw-9" value="&lt;font style=&quot;font-size: 20px;&quot;&gt;PaymentMst&lt;/font&gt;" style="shape=partialRectangle;whiteSpace=wrap;html=1;top=0;bottom=0;fillColor=default;direction=south;strokeWidth=3;" parent="1" vertex="1">
          <mxGeometry x="990" y="790" width="160" height="50" as="geometry" />
        </mxCell>
        <mxCell id="voMBrB7Y5mv7noKhndya-1" value="&lt;span style=&quot;font-weight: 700; text-align: left;&quot;&gt;&lt;font style=&quot;font-size: 19px;&quot;&gt;1st Level User side DFD&lt;/font&gt;&lt;/span&gt;" style="rounded=0;whiteSpace=wrap;html=1;" vertex="1" parent="1">
          <mxGeometry x="530" y="10" width="350" height="60" as="geometry" />
        </mxCell>
      </root>
    </mxGraphModel>
  </diagram>
</mxfile>
